<svg width="24" height="24" viewBox="0 0 24 24" fill="none" xmlns="http://www.w3.org/2000/svg">
<path d="M19.0006 20.9999V2.99991C19 2.81767 18.9498 2.63904 18.8552 2.48324C18.7607 2.32744 18.6254 2.20037 18.464 2.11572C18.3027 2.03106 18.1212 1.99203 17.9393 2.00281C17.7574 2.01359 17.5819 2.07379 17.4316 2.17691L4.43159 11.1769C3.89259 11.5499 3.89259 12.4479 4.43159 12.8219L17.4316 21.8219C17.5815 21.9261 17.7572 21.9872 17.9394 21.9985C18.1216 22.0099 18.3035 21.9711 18.4652 21.8864C18.6269 21.8017 18.7623 21.6742 18.8567 21.518C18.9511 21.3617 19.0009 21.1825 19.0006 20.9999Z" fill="black"/>
<path d="M19.0006 20.9999V2.99991C19 2.81767 18.9498 2.63904 18.8552 2.48324C18.7607 2.32744 18.6254 2.20037 18.464 2.11572C18.3027 2.03106 18.1212 1.99203 17.9393 2.00281C17.7574 2.01359 17.5819 2.07379 17.4316 2.17691L4.43159 11.1769C3.89259 11.5499 3.89259 12.4479 4.43159 12.8219L17.4316 21.8219C17.5815 21.9261 17.7572 21.9872 17.9394 21.9985C18.1216 22.0099 18.3035 21.9711 18.4652 21.8864C18.6269 21.8017 18.7623 21.6742 18.8567 21.518C18.9511 21.3617 19.0009 21.1825 19.0006 20.9999Z" fill="black"/>
</svg>
