<svg width="51" height="51" viewBox="0 0 51 51" fill="none" xmlns="http://www.w3.org/2000/svg">
<g clip-path="url(#clip0_287_324)">
<path d="M13.2189 -0.000488281C11.4872 -0.000488281 10.0704 1.4163 10.0704 3.14794V47.2259C10.0704 48.9575 11.4872 50.3743 13.2189 50.3743H44.7031C46.4347 50.3743 47.8515 48.9575 47.8515 47.2259V12.5932L35.2578 -0.000488281H13.2189Z" fill="#E2E5E7"/>
<path d="M38.4062 12.5932H47.8515L35.2578 -0.000488281V9.44479C35.2578 11.1764 36.6746 12.5932 38.4062 12.5932Z" fill="#B0B7BD"/>
<path d="M47.8516 22.039L38.4063 12.5938H47.8516V22.039Z" fill="#CAD1D8"/>
<path d="M41.5547 40.9296C41.5547 41.7954 40.8463 42.5038 39.9805 42.5038H5.34783C4.48202 42.5038 3.77362 41.7954 3.77362 40.9296V25.1875C3.77362 24.3217 4.48202 23.6133 5.34783 23.6133H39.9805C40.8463 23.6133 41.5547 24.3217 41.5547 25.1875V40.9296Z" fill="#50BEE8"/>
<path d="M9.73353 37.7814C9.31794 37.7814 8.86456 37.5531 8.86456 37.0006V29.8521C8.86456 29.3987 9.31794 29.0713 9.73353 29.0713H12.6159C18.3681 29.0713 18.2406 37.7814 12.7277 37.7814H9.73353ZM10.5269 30.6061V36.245H12.6159C16.0146 36.245 16.1642 30.6061 12.6159 30.6061H10.5269Z" fill="white"/>
<path d="M23.0577 37.9068C20.7294 38.0075 18.3114 36.4585 18.3114 33.3746C18.3114 30.2781 20.7278 28.7559 23.0577 28.7559C25.26 28.8676 27.563 30.3915 27.563 33.3746C27.563 36.3593 25.26 37.9068 23.0577 37.9068ZM22.9191 30.393C21.5086 30.393 19.9738 31.3879 19.9738 33.3762C19.9738 35.3534 21.5102 36.3609 22.9191 36.3609C24.3674 36.3609 25.9148 35.3534 25.9148 33.3762C25.9148 31.3864 24.3674 30.393 22.9191 30.393Z" fill="white"/>
<path d="M29.0444 33.3627C29.0444 30.9337 30.5683 28.8447 33.4632 28.8447C34.5589 28.8447 35.4279 29.1722 36.3456 29.9656C36.6857 30.2788 36.7234 30.833 36.3834 31.1856C36.0434 31.4863 35.527 31.45 35.2248 31.1478C34.71 30.6063 34.1811 30.4567 33.4632 30.4567C31.5254 30.4567 30.595 31.8294 30.595 33.3643C30.595 34.9259 31.5128 36.36 33.4632 36.36C34.1811 36.36 34.8486 36.0688 35.4279 35.554C35.8167 35.2518 36.3582 35.4013 36.5849 35.7051C36.7864 35.9822 36.8856 36.4482 36.4464 36.8874C35.5648 37.7075 34.5085 37.8713 33.4617 37.8713C30.4171 37.8713 29.0444 35.7917 29.0444 33.3627Z" fill="white"/>
<path d="M39.9805 42.5039H10.0704V44.0781H39.9805C40.8463 44.0781 41.5547 43.3697 41.5547 42.5039V40.9297C41.5547 41.7955 40.8463 42.5039 39.9805 42.5039Z" fill="#CAD1D8"/>
</g>
<defs>
<clipPath id="clip0_287_324">
<rect width="50.3748" height="50.3748" fill="white" transform="translate(0.625244)"/>
</clipPath>
</defs>
</svg>
