<svg width="136" height="55" viewBox="0 0 136 55" fill="none" xmlns="http://www.w3.org/2000/svg">
<path d="M5.352 32.264H16.104C18.12 32.264 19.752 30.584 19.752 28.592C19.752 26.576 18.12 24.896 16.104 24.896H5.352V32.264ZM0.6 24.896V22.52V20.144V8.048H5.352H15.096C19.728 8.048 23.496 11.84 23.496 16.472C23.496 17.792 23.208 19.04 22.68 20.144C22.32 20.84 21.912 21.464 21.408 22.064C21.576 22.208 21.768 22.352 21.936 22.52C22.656 23.216 23.232 24.032 23.664 24.896C24.216 26.024 24.504 27.248 24.504 28.592C24.504 33.2 20.712 37.016 16.104 37.016H5.352H0.6V24.896ZM5.352 20.144H15.096C17.112 20.144 18.768 18.488 18.768 16.472C18.768 14.456 17.112 12.8 15.096 12.8H5.352V20.144ZM30.4296 37.016H25.7016V26.216V8.048H30.4296H40.5336C45.5256 8.048 49.6056 12.152 49.6056 17.12C49.6056 21.896 45.8616 25.832 41.1576 26.192L49.6056 37.016H43.5576L35.1576 26.216H30.4296V37.016ZM30.4296 21.464H34.9896H37.4616H40.5336C42.9096 21.464 44.8536 19.496 44.8536 17.12C44.8536 14.744 42.8856 12.8 40.5336 12.8H30.4296V21.464ZM65.2751 8.048H66.3311C74.2991 8.048 80.8031 14.552 80.8031 22.52C80.8031 30.488 74.2991 37.016 66.3311 37.016H65.2751C57.3071 37.016 50.8031 30.488 50.8031 22.52C50.8031 14.552 57.3071 8.048 65.2751 8.048ZM65.2751 12.8C59.9231 12.8 55.5311 17.168 55.5311 22.52C55.5311 27.872 59.9231 32.264 65.2751 32.264H66.3311C71.6831 32.264 76.0511 27.872 76.0511 22.52C76.0511 17.168 71.6831 12.8 66.3311 12.8H65.2751ZM96.4704 32.264H97.5264C100.886 32.264 103.862 30.536 105.614 27.92L109.55 30.56C106.934 34.448 102.518 37.016 97.5264 37.016H96.4704C92.7504 37.016 89.3184 35.576 86.7504 33.224C83.8464 30.584 81.9984 26.768 81.9984 22.52C81.9984 18.296 83.8464 14.48 86.7504 11.816C89.3184 9.488 92.7504 8.048 96.4704 8.048H97.5264C102.518 8.048 106.934 10.616 109.55 14.504L105.614 17.12C103.862 14.528 100.886 12.8 97.5264 12.8H96.4704C91.1184 12.8 86.7504 17.168 86.7504 22.52C86.7504 27.872 91.1184 32.264 96.4704 32.264ZM110.756 33.968V26.984V8.048H115.508V10.112V18.296V21.824L116.924 20.288L120.212 16.712L128.204 8.048H134.684L123.044 20.672L134.684 37.016H128.852L119.756 24.248L115.508 28.832V37.016H110.756V33.968Z" fill="#2F2F2F"/>
<path d="M41.25 52.09V40.02H43.23V52.09H41.25ZM50.1605 50.11V47.26C50.1605 46.15 49.2405 45.24 48.1305 45.24C47.0305 45.24 46.1105 46.15 46.1105 47.26V50.11V52.09H44.1305V47.26V43.26H46.1105V43.82C46.7105 43.46 47.3905 43.26 48.1305 43.26C48.8705 43.26 49.5605 43.46 50.1605 43.82C51.3405 44.51 52.1405 45.8 52.1405 47.26V52.09H50.1605V50.11ZM56.6402 47.8L59.0002 43.26H61.2302L56.6402 52.09L52.0402 43.26H54.2702L56.6402 47.8ZM63.3842 46.36H67.4542H67.4842C67.4842 46.35 67.4742 46.35 67.4742 46.34C67.0342 45.68 66.2842 45.24 65.4342 45.24C64.5742 45.24 63.8242 45.68 63.3842 46.36ZM65.4342 52.09C64.5342 52.09 63.6942 51.82 63.0042 51.35C61.9842 50.68 61.2642 49.6 61.0642 48.33C61.0442 48.12 61.0242 47.89 61.0242 47.67C61.0242 47.22 61.0942 46.77 61.2142 46.36C61.5342 45.38 62.1642 44.55 63.0042 43.99C63.6942 43.53 64.5342 43.26 65.4342 43.26C66.9742 43.26 68.3242 44.05 69.1242 45.24C69.3442 45.58 69.5242 45.96 69.6442 46.36C69.7742 46.77 69.8442 47.22 69.8442 47.67C69.8442 47.89 69.8242 48.12 69.7942 48.33H67.7742H66.4642H64.4842H63.0942C63.3742 49.36 64.3242 50.11 65.4342 50.11C66.2842 50.11 67.0342 49.67 67.4742 49L69.1242 50.11C68.3242 51.29 66.9742 52.09 65.4342 52.09ZM72.7206 49.38C72.7206 49.78 73.0506 50.11 73.4406 50.11H76.8606C77.2606 50.11 77.5906 49.78 77.5906 49.38C77.5906 48.99 77.2606 48.66 76.8606 48.66H73.4406C73.1906 48.66 72.9506 48.62 72.7206 48.56C72.1806 48.41 71.7006 48.1 71.3506 47.67C71.1206 47.39 70.9406 47.05 70.8306 46.68C70.7706 46.45 70.7406 46.21 70.7406 45.96C70.7406 44.73 71.5806 43.67 72.7206 43.36C72.9506 43.29 73.1906 43.26 73.4406 43.26H76.8606C77.1106 43.26 77.3506 43.29 77.5906 43.36C78.7206 43.67 79.5706 44.73 79.5706 45.96H77.5906C77.5906 45.57 77.2606 45.24 76.8606 45.24H73.4406C73.0506 45.24 72.7206 45.57 72.7206 45.96C72.7206 46.36 73.0506 46.68 73.4406 46.68H76.8606C77.1106 46.68 77.3506 46.72 77.5906 46.78C78.1306 46.93 78.6006 47.25 78.9506 47.67C79.1806 47.96 79.3606 48.29 79.4706 48.66C79.5306 48.89 79.5706 49.13 79.5706 49.38C79.5706 50.62 78.7206 51.67 77.5906 51.99C77.3506 52.05 77.1106 52.09 76.8606 52.09H73.4406C73.1906 52.09 72.9506 52.05 72.7206 51.99C71.5806 51.67 70.7406 50.62 70.7406 49.38H72.7206ZM80.4668 47.67V40.88H82.4468V43.26H84.4368V45.24H82.4468V47.67C82.4468 49.02 83.5268 50.11 84.8768 50.11V52.09C83.9768 52.09 83.1368 51.82 82.4468 51.35C81.2568 50.56 80.4668 49.21 80.4668 47.67ZM87.7589 43.26V43.75C88.3089 43.43 88.9489 43.26 89.6189 43.26C90.7589 43.26 91.7689 43.75 92.4789 44.54C93.1789 43.75 94.2089 43.26 95.3389 43.26C97.4489 43.26 99.1889 44.99 99.1889 47.11V52.09H97.1989V50.11V47.11C97.1989 46.08 96.3589 45.24 95.3389 45.24C94.3189 45.24 93.4689 46.08 93.4689 47.11V50.11V52.09H91.4889V50.11V47.11C91.4889 46.08 90.6489 45.24 89.6189 45.24C88.5989 45.24 87.7589 46.08 87.7589 47.11V50.11V52.09H85.7789V47.11V43.26H87.7589ZM102.445 46.36H106.515H106.545C106.545 46.35 106.535 46.35 106.535 46.34C106.095 45.68 105.345 45.24 104.495 45.24C103.635 45.24 102.885 45.68 102.445 46.36ZM104.495 52.09C103.595 52.09 102.755 51.82 102.065 51.35C101.045 50.68 100.325 49.6 100.125 48.33C100.105 48.12 100.085 47.89 100.085 47.67C100.085 47.22 100.155 46.77 100.275 46.36C100.595 45.38 101.225 44.55 102.065 43.99C102.755 43.53 103.595 43.26 104.495 43.26C106.035 43.26 107.385 44.05 108.185 45.24C108.405 45.58 108.585 45.96 108.705 46.36C108.835 46.77 108.905 47.22 108.905 47.67C108.905 47.89 108.885 48.12 108.855 48.33H106.835H105.525H103.545H102.155C102.435 49.36 103.385 50.11 104.495 50.11C105.345 50.11 106.095 49.67 106.535 49L108.185 50.11C107.385 51.29 106.035 52.09 104.495 52.09ZM115.529 50.11V47.26C115.529 46.15 114.609 45.24 113.499 45.24C112.399 45.24 111.479 46.15 111.479 47.26V50.11V52.09H109.499V47.26V43.26H111.479V43.82C112.079 43.46 112.759 43.26 113.499 43.26C114.239 43.26 114.929 43.46 115.529 43.82C116.709 44.51 117.509 45.8 117.509 47.26V52.09H115.529V50.11ZM118.405 47.67V40.88H120.385V43.26H122.375V45.24H120.385V47.67C120.385 49.02 121.465 50.11 122.815 50.11V52.09C121.915 52.09 121.075 51.82 120.385 51.35C119.195 50.56 118.405 49.21 118.405 47.67ZM125.697 49.38C125.697 49.78 126.027 50.11 126.417 50.11H129.837C130.237 50.11 130.567 49.78 130.567 49.38C130.567 48.99 130.237 48.66 129.837 48.66H126.417C126.167 48.66 125.927 48.62 125.697 48.56C125.157 48.41 124.677 48.1 124.327 47.67C124.097 47.39 123.917 47.05 123.807 46.68C123.747 46.45 123.717 46.21 123.717 45.96C123.717 44.73 124.557 43.67 125.697 43.36C125.927 43.29 126.167 43.26 126.417 43.26H129.837C130.087 43.26 130.327 43.29 130.567 43.36C131.697 43.67 132.547 44.73 132.547 45.96H130.567C130.567 45.57 130.237 45.24 129.837 45.24H126.417C126.027 45.24 125.697 45.57 125.697 45.96C125.697 46.36 126.027 46.68 126.417 46.68H129.837C130.087 46.68 130.327 46.72 130.567 46.78C131.107 46.93 131.577 47.25 131.927 47.67C132.157 47.96 132.337 48.29 132.447 48.66C132.507 48.89 132.547 49.13 132.547 49.38C132.547 50.62 131.697 51.67 130.567 51.99C130.327 52.05 130.087 52.09 129.837 52.09H126.417C126.167 52.09 125.927 52.05 125.697 51.99C124.557 51.67 123.717 50.62 123.717 49.38H125.697Z" fill="#2F2F2F"/>
</svg>
