<svg width="122" height="47" viewBox="0 0 122 47" fill="none" xmlns="http://www.w3.org/2000/svg">
<path d="M4.80914 29.2372H14.4706C16.2821 29.2372 17.7485 27.7276 17.7485 25.9377C17.7485 24.1262 16.2821 22.6166 14.4706 22.6166H4.80914V29.2372ZM0.539141 22.6166V20.4816V18.3466V7.47748H4.80914H13.5648C17.727 7.47748 21.1128 10.8848 21.1128 15.047C21.1128 16.2331 20.854 17.3545 20.3795 18.3466C20.0561 18.972 19.6894 19.5327 19.2366 20.0718C19.3875 20.2012 19.5601 20.3306 19.711 20.4816C20.358 21.107 20.8756 21.8402 21.2637 22.6166C21.7597 23.6302 22.0185 24.73 22.0185 25.9377C22.0185 30.0783 18.6112 33.5072 14.4706 33.5072H4.80914H0.539141V22.6166ZM4.80914 18.3466H13.5648C15.3763 18.3466 16.8643 16.8585 16.8643 15.047C16.8643 13.2355 15.3763 11.7475 13.5648 11.7475H4.80914V18.3466ZM27.3431 33.5072H23.0946V23.8027V7.47748H27.3431H36.4222C40.9079 7.47748 44.574 11.1652 44.574 15.6293C44.574 19.9209 41.2098 23.4576 36.9829 23.7811L44.574 33.5072H39.1395L31.5915 23.8027H27.3431V33.5072ZM27.3431 19.5327H31.4405H33.6618H36.4222C38.5572 19.5327 40.304 17.7643 40.304 15.6293C40.304 13.4943 38.5356 11.7475 36.4222 11.7475H27.3431V19.5327ZM58.6542 7.47748H59.6031C66.7629 7.47748 72.6072 13.3218 72.6072 20.4816C72.6072 27.6414 66.7629 33.5072 59.6031 33.5072H58.6542C51.4944 33.5072 45.6501 27.6414 45.6501 20.4816C45.6501 13.3218 51.4944 7.47748 58.6542 7.47748ZM58.6542 11.7475C53.8451 11.7475 49.8985 15.6724 49.8985 20.4816C49.8985 25.2907 53.8451 29.2372 58.6542 29.2372H59.6031C64.4122 29.2372 68.3372 25.2907 68.3372 20.4816C68.3372 15.6724 64.4122 11.7475 59.6031 11.7475H58.6542ZM86.6853 29.2372H87.6342C90.6534 29.2372 93.3276 27.6845 94.9019 25.3338L98.4386 27.7061C96.088 31.1997 92.1199 33.5072 87.6342 33.5072H86.6853C83.3427 33.5072 80.2588 32.2133 77.9512 30.0998C75.3418 27.7276 73.6812 24.2987 73.6812 20.4816C73.6812 16.686 75.3418 13.2571 77.9512 10.8633C80.2588 8.77142 83.3427 7.47748 86.6853 7.47748H87.6342C92.1199 7.47748 96.088 9.785 98.4386 13.2786L94.9019 15.6293C93.3276 13.3002 90.6534 11.7475 87.6342 11.7475H86.6853C81.8762 11.7475 77.9512 15.6724 77.9512 20.4816C77.9512 25.2907 81.8762 29.2372 86.6853 29.2372ZM99.5221 30.7684V24.4928V7.47748H103.792V9.33212V16.686V19.8562L105.065 18.476L108.019 15.2627L115.2 7.47748H121.023L110.564 18.821L121.023 33.5072H115.783L107.609 22.0343L103.792 26.1533V33.5072H99.5221V30.7684Z" fill="#EDEDED"/>
<path d="M63.6187 44.7929V37.3558H64.8387V44.7929H63.6187ZM69.109 43.5729V41.8168C69.109 41.1329 68.5421 40.5722 67.8582 40.5722C67.1804 40.5722 66.6135 41.1329 66.6135 41.8168V43.5729V44.7929H65.3935V41.8168V39.3522H66.6135V39.6972C66.9832 39.4754 67.4022 39.3522 67.8582 39.3522C68.3141 39.3522 68.7393 39.4754 69.109 39.6972C69.836 40.1224 70.329 40.9172 70.329 41.8168V44.7929H69.109V43.5729ZM73.1015 42.1496L74.5557 39.3522H75.9297L73.1015 44.7929L70.2672 39.3522H71.6412L73.1015 42.1496ZM77.2569 41.2623H79.7647H79.7832C79.7832 41.2561 79.777 41.2561 79.777 41.25C79.5059 40.8433 79.0438 40.5722 78.5201 40.5722C77.9902 40.5722 77.528 40.8433 77.2569 41.2623ZM78.5201 44.7929C77.9655 44.7929 77.4479 44.6265 77.0228 44.3369C76.3943 43.9241 75.9507 43.2587 75.8274 42.4761C75.8151 42.3467 75.8028 42.205 75.8028 42.0695C75.8028 41.7922 75.8459 41.5149 75.9199 41.2623C76.117 40.6585 76.5052 40.147 77.0228 39.802C77.4479 39.5186 77.9655 39.3522 78.5201 39.3522C79.4689 39.3522 80.3008 39.839 80.7937 40.5722C80.9292 40.7817 81.0402 41.0158 81.1141 41.2623C81.1942 41.5149 81.2373 41.7922 81.2373 42.0695C81.2373 42.205 81.225 42.3467 81.2065 42.4761H79.9619H79.1547H77.9347H77.0782C77.2508 43.1108 77.8361 43.5729 78.5201 43.5729C79.0438 43.5729 79.5059 43.3018 79.777 42.889L80.7937 43.5729C80.3008 44.3 79.4689 44.7929 78.5201 44.7929ZM83.0097 43.1231C83.0097 43.3696 83.213 43.5729 83.4533 43.5729H85.5606C85.807 43.5729 86.0104 43.3696 86.0104 43.1231C86.0104 42.8828 85.807 42.6795 85.5606 42.6795H83.4533C83.2993 42.6795 83.1514 42.6548 83.0097 42.6179C82.6769 42.5254 82.3812 42.3344 82.1655 42.0695C82.0238 41.8969 81.9129 41.6875 81.8451 41.4595C81.8081 41.3178 81.7897 41.1699 81.7897 41.0158C81.7897 40.258 82.3072 39.6048 83.0097 39.4138C83.1514 39.3707 83.2993 39.3522 83.4533 39.3522H85.5606C85.7146 39.3522 85.8625 39.3707 86.0104 39.4138C86.7066 39.6048 87.2304 40.258 87.2304 41.0158H86.0104C86.0104 40.7755 85.807 40.5722 85.5606 40.5722H83.4533C83.213 40.5722 83.0097 40.7755 83.0097 41.0158C83.0097 41.2623 83.213 41.4595 83.4533 41.4595H85.5606C85.7146 41.4595 85.8625 41.4841 86.0104 41.5211C86.3431 41.6135 86.6327 41.8107 86.8483 42.0695C86.9901 42.2482 87.101 42.4515 87.1688 42.6795C87.2057 42.8212 87.2304 42.9691 87.2304 43.1231C87.2304 43.8871 86.7066 44.5341 86.0104 44.7313C85.8625 44.7683 85.7146 44.7929 85.5606 44.7929H83.4533C83.2993 44.7929 83.1514 44.7683 83.0097 44.7313C82.3072 44.5341 81.7897 43.8871 81.7897 43.1231H83.0097ZM87.7826 42.0695V37.8857H89.0026V39.3522H90.2287V40.5722H89.0026V42.0695C89.0026 42.9013 89.668 43.5729 90.4998 43.5729V44.7929C89.9453 44.7929 89.4277 44.6265 89.0026 44.3369C88.2693 43.8502 87.7826 43.0184 87.7826 42.0695ZM92.2757 39.3522V39.6541C92.6146 39.4569 93.0089 39.3522 93.4217 39.3522C94.1242 39.3522 94.7465 39.6541 95.184 40.1409C95.6153 39.6541 96.2499 39.3522 96.9462 39.3522C98.2463 39.3522 99.3184 40.4182 99.3184 41.7244V44.7929H98.0922V43.5729V41.7244C98.0922 41.0898 97.5747 40.5722 96.9462 40.5722C96.3177 40.5722 95.794 41.0898 95.794 41.7244V43.5729V44.7929H94.574V43.5729V41.7244C94.574 41.0898 94.0564 40.5722 93.4217 40.5722C92.7932 40.5722 92.2757 41.0898 92.2757 41.7244V43.5729V44.7929H91.0557V41.7244V39.3522H92.2757ZM101.325 41.2623H103.833H103.851C103.851 41.2561 103.845 41.2561 103.845 41.25C103.574 40.8433 103.112 40.5722 102.588 40.5722C102.058 40.5722 101.596 40.8433 101.325 41.2623ZM102.588 44.7929C102.033 44.7929 101.516 44.6265 101.091 44.3369C100.462 43.9241 100.019 43.2587 99.8953 42.4761C99.883 42.3467 99.8706 42.205 99.8706 42.0695C99.8706 41.7922 99.9138 41.5149 99.9877 41.2623C100.185 40.6585 100.573 40.147 101.091 39.802C101.516 39.5186 102.033 39.3522 102.588 39.3522C103.537 39.3522 104.369 39.839 104.862 40.5722C104.997 40.7817 105.108 41.0158 105.182 41.2623C105.262 41.5149 105.305 41.7922 105.305 42.0695C105.305 42.205 105.293 42.3467 105.274 42.4761H104.03H103.223H102.003H101.146C101.319 43.1108 101.904 43.5729 102.588 43.5729C103.112 43.5729 103.574 43.3018 103.845 42.889L104.862 43.5729C104.369 44.3 103.537 44.7929 102.588 44.7929ZM109.386 43.5729V41.8168C109.386 41.1329 108.82 40.5722 108.136 40.5722C107.458 40.5722 106.891 41.1329 106.891 41.8168V43.5729V44.7929H105.671V41.8168V39.3522H106.891V39.6972C107.261 39.4754 107.68 39.3522 108.136 39.3522C108.592 39.3522 109.017 39.4754 109.386 39.6972C110.114 40.1224 110.606 40.9172 110.606 41.8168V44.7929H109.386V43.5729ZM111.158 42.0695V37.8857H112.378V39.3522H113.605V40.5722H112.378V42.0695C112.378 42.9013 113.044 43.5729 113.876 43.5729V44.7929C113.321 44.7929 112.804 44.6265 112.378 44.3369C111.645 43.8502 111.158 43.0184 111.158 42.0695ZM115.652 43.1231C115.652 43.3696 115.855 43.5729 116.095 43.5729H118.202C118.449 43.5729 118.652 43.3696 118.652 43.1231C118.652 42.8828 118.449 42.6795 118.202 42.6795H116.095C115.941 42.6795 115.793 42.6548 115.652 42.6179C115.319 42.5254 115.023 42.3344 114.807 42.0695C114.666 41.8969 114.555 41.6875 114.487 41.4595C114.45 41.3178 114.432 41.1699 114.432 41.0158C114.432 40.258 114.949 39.6048 115.652 39.4138C115.793 39.3707 115.941 39.3522 116.095 39.3522H118.202C118.356 39.3522 118.504 39.3707 118.652 39.4138C119.349 39.6048 119.872 40.258 119.872 41.0158H118.652C118.652 40.7755 118.449 40.5722 118.202 40.5722H116.095C115.855 40.5722 115.652 40.7755 115.652 41.0158C115.652 41.2623 115.855 41.4595 116.095 41.4595H118.202C118.356 41.4595 118.504 41.4841 118.652 41.5211C118.985 41.6135 119.275 41.8107 119.49 42.0695C119.632 42.2482 119.743 42.4515 119.811 42.6795C119.848 42.8212 119.872 42.9691 119.872 43.1231C119.872 43.8871 119.349 44.5341 118.652 44.7313C118.504 44.7683 118.356 44.7929 118.202 44.7929H116.095C115.941 44.7929 115.793 44.7683 115.652 44.7313C114.949 44.5341 114.432 43.8871 114.432 43.1231H115.652Z" fill="#EDEDED"/>
</svg>
