<svg width="198" height="75" viewBox="0 0 198 75" fill="none" xmlns="http://www.w3.org/2000/svg">
<path d="M7.805 47.385H23.485C26.425 47.385 28.805 44.935 28.805 42.03C28.805 39.09 26.425 36.64 23.485 36.64H7.805V47.385ZM0.875 36.64V33.175V29.71V12.07H7.805H22.015C28.77 12.07 34.265 17.6 34.265 24.355C34.265 26.28 33.845 28.1 33.075 29.71C32.55 30.725 31.955 31.635 31.22 32.51C31.465 32.72 31.745 32.93 31.99 33.175C33.04 34.19 33.88 35.38 34.51 36.64C35.315 38.285 35.735 40.07 35.735 42.03C35.735 48.75 30.205 54.315 23.485 54.315H7.805H0.875V36.64ZM7.805 29.71H22.015C24.955 29.71 27.37 27.295 27.37 24.355C27.37 21.415 24.955 19 22.015 19H7.805V29.71ZM44.3764 54.315H37.4814V38.565V12.07H44.3764H59.1114C66.3914 12.07 72.3414 18.055 72.3414 25.3C72.3414 32.265 66.8814 38.005 60.0214 38.53L72.3414 54.315H63.5214L51.2714 38.565H44.3764V54.315ZM44.3764 31.635H51.0264H54.6314H59.1114C62.5764 31.635 65.4114 28.765 65.4114 25.3C65.4114 21.835 62.5414 19 59.1114 19H44.3764V31.635ZM95.1929 12.07H96.7329C108.353 12.07 117.838 21.555 117.838 33.175C117.838 44.795 108.353 54.315 96.7329 54.315H95.1929C83.5729 54.315 74.0879 44.795 74.0879 33.175C74.0879 21.555 83.5729 12.07 95.1929 12.07ZM95.1929 19C87.3879 19 80.9829 25.37 80.9829 33.175C80.9829 40.98 87.3879 47.385 95.1929 47.385H96.7329C104.538 47.385 110.908 40.98 110.908 33.175C110.908 25.37 104.538 19 96.7329 19H95.1929ZM140.686 47.385H142.226C147.126 47.385 151.466 44.865 154.021 41.05L159.761 44.9C155.946 50.57 149.506 54.315 142.226 54.315H140.686C135.261 54.315 130.256 52.215 126.511 48.785C122.276 44.935 119.581 39.37 119.581 33.175C119.581 27.015 122.276 21.45 126.511 17.565C130.256 14.17 135.261 12.07 140.686 12.07H142.226C149.506 12.07 155.946 15.815 159.761 21.485L154.021 25.3C151.466 21.52 147.126 19 142.226 19H140.686C132.881 19 126.511 25.37 126.511 33.175C126.511 40.98 132.881 47.385 140.686 47.385ZM161.52 49.87V39.685V12.07H168.45V15.08V27.015V32.16L170.515 29.92L175.31 24.705L186.965 12.07H196.415L179.44 30.48L196.415 54.315H187.91L174.645 35.695L168.45 42.38V54.315H161.52V49.87Z" fill="black"/>
<path d="M103.25 72.09V60.02H105.23V72.09H103.25ZM112.16 70.11V67.26C112.16 66.15 111.24 65.24 110.13 65.24C109.03 65.24 108.11 66.15 108.11 67.26V70.11V72.09H106.13V67.26V63.26H108.11V63.82C108.71 63.46 109.39 63.26 110.13 63.26C110.87 63.26 111.56 63.46 112.16 63.82C113.34 64.51 114.14 65.8 114.14 67.26V72.09H112.16V70.11ZM118.64 67.8L121 63.26H123.23L118.64 72.09L114.04 63.26H116.27L118.64 67.8ZM125.384 66.36H129.454H129.484C129.484 66.35 129.474 66.35 129.474 66.34C129.034 65.68 128.284 65.24 127.434 65.24C126.574 65.24 125.824 65.68 125.384 66.36ZM127.434 72.09C126.534 72.09 125.694 71.82 125.004 71.35C123.984 70.68 123.264 69.6 123.064 68.33C123.044 68.12 123.024 67.89 123.024 67.67C123.024 67.22 123.094 66.77 123.214 66.36C123.534 65.38 124.164 64.55 125.004 63.99C125.694 63.53 126.534 63.26 127.434 63.26C128.974 63.26 130.324 64.05 131.124 65.24C131.344 65.58 131.524 65.96 131.644 66.36C131.774 66.77 131.844 67.22 131.844 67.67C131.844 67.89 131.824 68.12 131.794 68.33H129.774H128.464H126.484H125.094C125.374 69.36 126.324 70.11 127.434 70.11C128.284 70.11 129.034 69.67 129.474 69L131.124 70.11C130.324 71.29 128.974 72.09 127.434 72.09ZM134.721 69.38C134.721 69.78 135.051 70.11 135.441 70.11H138.861C139.261 70.11 139.591 69.78 139.591 69.38C139.591 68.99 139.261 68.66 138.861 68.66H135.441C135.191 68.66 134.951 68.62 134.721 68.56C134.181 68.41 133.701 68.1 133.351 67.67C133.121 67.39 132.941 67.05 132.831 66.68C132.771 66.45 132.741 66.21 132.741 65.96C132.741 64.73 133.581 63.67 134.721 63.36C134.951 63.29 135.191 63.26 135.441 63.26H138.861C139.111 63.26 139.351 63.29 139.591 63.36C140.721 63.67 141.571 64.73 141.571 65.96H139.591C139.591 65.57 139.261 65.24 138.861 65.24H135.441C135.051 65.24 134.721 65.57 134.721 65.96C134.721 66.36 135.051 66.68 135.441 66.68H138.861C139.111 66.68 139.351 66.72 139.591 66.78C140.131 66.93 140.601 67.25 140.951 67.67C141.181 67.96 141.361 68.29 141.471 68.66C141.531 68.89 141.571 69.13 141.571 69.38C141.571 70.62 140.721 71.67 139.591 71.99C139.351 72.05 139.111 72.09 138.861 72.09H135.441C135.191 72.09 134.951 72.05 134.721 71.99C133.581 71.67 132.741 70.62 132.741 69.38H134.721ZM142.467 67.67V60.88H144.447V63.26H146.437V65.24H144.447V67.67C144.447 69.02 145.527 70.11 146.877 70.11V72.09C145.977 72.09 145.137 71.82 144.447 71.35C143.257 70.56 142.467 69.21 142.467 67.67ZM147.779 63.26H149.759V72.09H147.779V63.26ZM148.769 60.02C149.319 60.02 149.759 60.46 149.759 61.01C149.759 61.55 149.319 62 148.769 62C148.229 62 147.779 61.55 147.779 61.01C147.779 60.46 148.229 60.02 148.769 60.02ZM152.639 63.26V63.75C153.189 63.43 153.829 63.26 154.499 63.26C155.639 63.26 156.649 63.75 157.359 64.54C158.059 63.75 159.089 63.26 160.219 63.26C162.329 63.26 164.069 64.99 164.069 67.11V72.09H162.079V70.11V67.11C162.079 66.08 161.239 65.24 160.219 65.24C159.199 65.24 158.349 66.08 158.349 67.11V70.11V72.09H156.369V70.11V67.11C156.369 66.08 155.529 65.24 154.499 65.24C153.479 65.24 152.639 66.08 152.639 67.11V70.11V72.09H150.659V67.11V63.26H152.639ZM167.326 66.36H171.396H171.426C171.426 66.35 171.416 66.35 171.416 66.34C170.976 65.68 170.226 65.24 169.376 65.24C168.516 65.24 167.766 65.68 167.326 66.36ZM169.376 72.09C168.476 72.09 167.636 71.82 166.946 71.35C165.926 70.68 165.206 69.6 165.006 68.33C164.986 68.12 164.966 67.89 164.966 67.67C164.966 67.22 165.036 66.77 165.156 66.36C165.476 65.38 166.106 64.55 166.946 63.99C167.636 63.53 168.476 63.26 169.376 63.26C170.916 63.26 172.266 64.05 173.066 65.24C173.286 65.58 173.466 65.96 173.586 66.36C173.716 66.77 173.786 67.22 173.786 67.67C173.786 67.89 173.766 68.12 173.736 68.33H171.716H170.406H168.426H167.036C167.316 69.36 168.266 70.11 169.376 70.11C170.226 70.11 170.976 69.67 171.416 69L173.066 70.11C172.266 71.29 170.916 72.09 169.376 72.09ZM180.409 70.11V67.26C180.409 66.15 179.489 65.24 178.379 65.24C177.279 65.24 176.359 66.15 176.359 67.26V70.11V72.09H174.379V67.26V63.26H176.359V63.82C176.959 63.46 177.639 63.26 178.379 63.26C179.119 63.26 179.809 63.46 180.409 63.82C181.589 64.51 182.389 65.8 182.389 67.26V72.09H180.409V70.11ZM183.285 67.67V60.88H185.265V63.26H187.255V65.24H185.265V67.67C185.265 69.02 186.345 70.11 187.695 70.11V72.09C186.795 72.09 185.955 71.82 185.265 71.35C184.075 70.56 183.285 69.21 183.285 67.67ZM190.577 69.38C190.577 69.78 190.907 70.11 191.297 70.11H194.717C195.117 70.11 195.447 69.78 195.447 69.38C195.447 68.99 195.117 68.66 194.717 68.66H191.297C191.047 68.66 190.807 68.62 190.577 68.56C190.037 68.41 189.557 68.1 189.207 67.67C188.977 67.39 188.797 67.05 188.687 66.68C188.627 66.45 188.597 66.21 188.597 65.96C188.597 64.73 189.437 63.67 190.577 63.36C190.807 63.29 191.047 63.26 191.297 63.26H194.717C194.967 63.26 195.207 63.29 195.447 63.36C196.577 63.67 197.427 64.73 197.427 65.96H195.447C195.447 65.57 195.117 65.24 194.717 65.24H191.297C190.907 65.24 190.577 65.57 190.577 65.96C190.577 66.36 190.907 66.68 191.297 66.68H194.717C194.967 66.68 195.207 66.72 195.447 66.78C195.987 66.93 196.457 67.25 196.807 67.67C197.037 67.96 197.217 68.29 197.327 68.66C197.387 68.89 197.427 69.13 197.427 69.38C197.427 70.62 196.577 71.67 195.447 71.99C195.207 72.05 194.967 72.09 194.717 72.09H191.297C191.047 72.09 190.807 72.05 190.577 71.99C189.437 71.67 188.597 70.62 188.597 69.38H190.577Z" fill="black"/>
</svg>
