<svg width="51" height="51" viewBox="0 0 51 51" fill="none" xmlns="http://www.w3.org/2000/svg">
<g clip-path="url(#clip0_287_314)">
<path d="M12.5937 -0.000488281C10.8621 -0.000488281 9.44528 1.4163 9.44528 3.14794V47.2259C9.44528 48.9575 10.8621 50.3743 12.5937 50.3743H44.078C45.8096 50.3743 47.2264 48.9575 47.2264 47.2259V12.5932L34.6327 -0.000488281H12.5937Z" fill="#E2E5E7"/>
<path d="M37.7811 12.5932H47.2264L34.6327 -0.000488281V9.44479C34.6327 11.1764 36.0495 12.5932 37.7811 12.5932Z" fill="#B0B7BD"/>
<path d="M47.2264 22.039L37.7811 12.5938H47.2264V22.039Z" fill="#CAD1D8"/>
<path d="M40.9295 40.9296C40.9295 41.7954 40.2211 42.5038 39.3553 42.5038H4.72265C3.85683 42.5038 3.14844 41.7954 3.14844 40.9296V25.1875C3.14844 24.3217 3.85683 23.6133 4.72265 23.6133H39.3553C40.2211 23.6133 40.9295 24.3217 40.9295 25.1875V40.9296Z" fill="#F15642"/>
<path d="M10.0104 29.8265C10.0104 29.4109 10.3378 28.9575 10.8652 28.9575H13.7728C15.41 28.9575 16.8834 30.0532 16.8834 32.1532C16.8834 34.143 15.41 35.2512 13.7728 35.2512H11.6712V36.9136C11.6712 37.4677 11.3186 37.781 10.8652 37.781C10.4496 37.781 10.0104 37.4677 10.0104 36.9136V29.8265ZM11.6712 30.5428V33.6786H13.7728C14.6166 33.6786 15.284 32.934 15.284 32.1532C15.284 31.2732 14.6166 30.5428 13.7728 30.5428H11.6712Z" fill="white"/>
<path d="M19.3486 37.7814C18.933 37.7814 18.4797 37.5547 18.4797 37.0022V29.8521C18.4797 29.4003 18.933 29.0713 19.3486 29.0713H22.231C27.9832 29.0713 27.8573 37.7814 22.3444 37.7814H19.3486ZM20.142 30.6077V36.2466H22.231C25.6297 36.2466 25.7809 30.6077 22.231 30.6077H20.142Z" fill="white"/>
<path d="M29.8974 30.7086V32.7094H33.1072C33.5606 32.7094 34.014 33.1628 34.014 33.602C34.014 34.0176 33.5606 34.3576 33.1072 34.3576H29.8974V37.0007C29.8974 37.4415 29.5842 37.7799 29.1434 37.7799C28.5893 37.7799 28.2508 37.4415 28.2508 37.0007V29.8506C28.2508 29.3988 28.5908 29.0698 29.1434 29.0698H33.5622C34.1163 29.0698 34.4437 29.3988 34.4437 29.8506C34.4437 30.2536 34.1163 30.707 33.5622 30.707H29.8974V30.7086Z" fill="white"/>
<path d="M39.3553 42.5039H9.44528V44.0781H39.3553C40.2211 44.0781 40.9295 43.3697 40.9295 42.5039V40.9297C40.9295 41.7955 40.2211 42.5039 39.3553 42.5039Z" fill="#CAD1D8"/>
</g>
<defs>
<clipPath id="clip0_287_314">
<rect width="50.3748" height="50.3748" fill="white"/>
</clipPath>
</defs>
</svg>
