<svg width="51" height="51" viewBox="0 0 51 51" fill="none" xmlns="http://www.w3.org/2000/svg">
<g clip-path="url(#clip0_287_304)">
<path d="M12.9063 -0.000488281C11.1746 -0.000488281 9.75784 1.4163 9.75784 3.14794V47.2259C9.75784 48.9575 11.1746 50.3743 12.9063 50.3743H44.3905C46.1222 50.3743 47.5389 48.9575 47.5389 47.2259V12.5932L34.9452 -0.000488281H12.9063Z" fill="#E2E5E7"/>
<path d="M38.0937 12.5932H47.5389L34.9453 -0.000488281V9.44479C34.9453 11.1764 36.362 12.5932 38.0937 12.5932Z" fill="#B0B7BD"/>
<path d="M47.539 22.039L38.0937 12.5938H47.539V22.039Z" fill="#CAD1D8"/>
<path d="M41.2421 40.9296C41.2421 41.7954 40.5337 42.5038 39.6679 42.5038H5.03524C4.16942 42.5038 3.46103 41.7954 3.46103 40.9296V25.1875C3.46103 24.3217 4.16942 23.6133 5.03524 23.6133H39.6679C40.5337 23.6133 41.2421 24.3217 41.2421 25.1875V40.9296Z" fill="#F15642"/>
<path d="M10.6882 29.8265C10.6882 29.4109 11.0156 28.9575 11.543 28.9575H14.4506C16.0878 28.9575 17.5612 30.0532 17.5612 32.1532C17.5612 34.143 16.0878 35.2512 14.4506 35.2512H12.349V36.9136C12.349 37.4677 11.9979 37.781 11.5446 37.781C11.129 37.781 10.6898 37.4677 10.6898 36.9136V29.8265H10.6882ZM12.349 30.5428V33.6786H14.4506C15.2943 33.6786 15.9618 32.934 15.9618 32.1532C15.9618 31.2732 15.2943 30.5428 14.4506 30.5428H12.349Z" fill="white"/>
<path d="M19.1653 29.8265C19.1653 29.4109 19.4928 28.9575 20.0217 28.9575H22.9293C24.5664 28.9575 26.0399 30.0532 26.0399 32.1532C26.0399 34.143 24.5664 35.2512 22.9293 35.2512H20.8277V36.9136C20.8277 37.4677 20.4751 37.781 20.0217 37.781C19.6061 37.781 19.1653 37.4677 19.1653 36.9136V29.8265ZM20.8261 30.5428V33.6786H22.9277C23.7715 33.6786 24.4389 32.934 24.4389 32.1532C24.4389 31.2732 23.7715 30.5428 22.9277 30.5428H20.8261Z" fill="white"/>
<path d="M29.9943 30.6451H27.7936C26.6979 30.6451 26.6979 29.0347 27.7936 29.0347H33.7457C34.8665 29.0347 34.8665 30.6451 33.7457 30.6451H31.6567V37.0018C31.6567 38.0958 29.9943 38.1226 29.9943 37.0018V30.6451Z" fill="white"/>
<path d="M39.6679 42.5039H9.75784V44.0781H39.6679C40.5337 44.0781 41.2421 43.3697 41.2421 42.5039V40.9297C41.2421 41.7955 40.5337 42.5039 39.6679 42.5039Z" fill="#CAD1D8"/>
</g>
<defs>
<clipPath id="clip0_287_304">
<rect width="50.3748" height="50.3748" fill="white" transform="translate(0.312561)"/>
</clipPath>
</defs>
</svg>
